<svg width="70" height="70" viewBox="0 0 70 70" fill="none" xmlns="http://www.w3.org/2000/svg">
<circle r="35" transform="matrix(-1 0 0 1 35 35)" fill="white"/>
<circle r="34" transform="matrix(-1 0 0 1 35 35)" stroke="black" stroke-opacity="0.46" stroke-width="2"/>
<circle r="35" transform="matrix(-1 0 0 1 35 35)" fill="white"/>
<circle r="34" transform="matrix(-1 0 0 1 35 35)" stroke="black" stroke-opacity="0.46" stroke-width="2"/>
<path d="M44.1462 33.9969L28.7043 19.2838C28.4467 19.0381 28.1043 18.9011 27.7484 18.9011C27.3924 18.9011 27.0501 19.0381 26.7924 19.2838L26.7758 19.3004C26.6505 19.4195 26.5507 19.5628 26.4825 19.7216C26.4143 19.8805 26.3791 20.0516 26.3791 20.2245C26.3791 20.3973 26.4143 20.5684 26.4825 20.7273C26.5507 20.8861 26.6505 21.0295 26.7758 21.1485L41.3171 35.0027L26.7758 48.8513C26.6505 48.9704 26.5507 49.1137 26.4825 49.2726C26.4143 49.4314 26.3791 49.6025 26.3791 49.7754C26.3791 49.9483 26.4143 50.1194 26.4825 50.2782C26.5507 50.4371 26.6505 50.5804 26.7758 50.6995L26.7924 50.7161C27.0501 50.9617 27.3924 51.0987 27.7484 51.0987C28.1043 51.0987 28.4467 50.9617 28.7043 50.7161L44.1462 36.003C44.282 35.8736 44.3901 35.718 44.464 35.5455C44.5378 35.3731 44.5759 35.1875 44.5759 34.9999C44.5759 34.8124 44.5378 34.6267 44.464 34.4543C44.3901 34.2819 44.282 34.1263 44.1462 33.9969Z" fill="#6C6C6C"/>
</svg>
