<svg width="24" height="24" viewBox="0 0 24 24" fill="none" xmlns="http://www.w3.org/2000/svg">
<path d="M12.0001 1.3335C9.92353 1.33523 7.93205 2.15862 6.4606 3.62383C4.98915 5.08903 4.1573 7.07699 4.14673 9.1535C4.14673 12.2668 5.8934 14.8735 7.1734 16.7735L7.40673 17.1202C8.68025 18.9659 10.0464 20.746 11.5001 22.4535L12.0067 23.0468L12.5134 22.4535C13.9668 20.7458 15.333 18.9658 16.6067 17.1202L16.8401 16.7668C18.1134 14.8668 19.8601 12.2668 19.8601 9.1535C19.8495 7.07583 19.0167 5.08687 17.5438 3.62148C16.0709 2.15608 14.0778 1.33347 12.0001 1.3335ZM12.0001 12.6668C11.1351 12.6668 10.2896 12.4103 9.57037 11.9298C8.85118 11.4492 8.29064 10.7662 7.95963 9.9671C7.62862 9.16798 7.54201 8.28865 7.71076 7.4403C7.87951 6.59196 8.29603 5.8127 8.90765 5.20108C9.51927 4.58946 10.2985 4.17294 11.1469 4.0042C11.9952 3.83545 12.8745 3.92206 13.6737 4.25306C14.4728 4.58407 15.1558 5.14461 15.6364 5.8638C16.1169 6.58299 16.3734 7.42853 16.3734 8.2935C16.3734 9.45338 15.9126 10.5658 15.0925 11.3859C14.2723 12.2061 13.1599 12.6668 12.0001 12.6668Z" fill="white"/>
<path d="M12.0001 10.78C13.3734 10.78 14.4868 9.66666 14.4868 8.29331C14.4868 6.91996 13.3734 5.80664 12.0001 5.80664C10.6267 5.80664 9.51343 6.91996 9.51343 8.29331C9.51343 9.66666 10.6267 10.78 12.0001 10.78Z" fill="white"/>
</svg>
